# xmcd
#
# Track frame offsets:
#	150
#	19473
#	38750
#	61627
#	76762
#	94000
#	109263
#	125668
#	139521
#	161193
#	176071
#	190510
#	206003
#	218011
#
# Disc length: 3105 seconds
#
# Revision: 0
# Processed by: cddbd v1.5PL3 Copyright (c) Steve Scherf et al.
# Submitted via: dBpowerAMP V4.0
#
DISCID=bb0c1f0e
DTITLE=Chystian and Ralf - O Melhor de Chrystian e Ralf
DYEAR=2002
DGENRE=Sertaneja
TTITLE0=Cheiro de Shampoo
TTITLE1=Chora peito
TTITLE2=Yolanda
TTITLE3=Sensível Demais
TTITLE4=Minha Gioconda
TTITLE5=Nova York
TTITLE6=Só mais um caso de Amor
TTITLE7=O que tiver que vir virá
TTITLE8=Desejo de Amar
TTITLE9=poeira no vento
TTITLE10=Erramos Juntos
TTITLE11=Hino de Reis
TTITLE12=O futuro é uma Incerteza
TTITLE13=Caprichos de Mulher
EXTD=
EXTT0=
EXTT1=
EXTT2=
EXTT3=
EXTT4=
EXTT5=
EXTT6=
EXTT7=
EXTT8=
EXTT9=
EXTT10=
EXTT11=
EXTT12=
EXTT13=
PLAYORDER=
